<svg width="571" height="437" version="1.1" xmlns="http://www.w3.org/2000/svg" desc="Created with imagetracer.js version 1.2.6" ><path fill="rgb(0,0,0)" stroke="rgb(0,0,0)" stroke-width="1" opacity="0" d="M 0 0 L 571 0 L 571 437 L 0 437 L 0 0 Z M 293 85 L 288 86 L 284 89 Q 280 88 281 91 L 265 104 L 263 107 L 236 130 L 234 133 L 211 152 Q 212 154 210 153 L 208 156 L 205 158 Q 206 160 203 159 L 197 175 L 197 183 L 194 196 L 194 206 L 191 220 L 191 230 L 189 236 L 188 253 L 186 260 L 186 266 L 189 274 Q 188 276 191 275 L 191 278 L 211 300 Q 210 302 213 301 L 214 304 L 217 306 Q 216 308 219 307 L 236 327 Q 238 326 237 330 L 239 330 L 255 350 Q 260 357 273 357 L 275 357 Q 282 356 286 351 L 287 348 L 296 342 L 298 339 L 301 337 L 308 329 L 311 327 L 313 324 L 316 322 L 318 319 Q 320 320 319 318 L 322 316 L 324 313 Q 326 314 325 312 L 328 310 L 331 304 L 334 303 Q 333 300 336 301 L 339 297 L 342 295 L 342 294 L 357 278 Q 356 274 359 275 L 363 265 L 363 261 L 371 235 L 371 230 L 377 214 L 377 209 L 380 203 L 380 198 L 385 182 L 385 177 L 382 167 L 354 133 L 351 132 Q 352 129 349 130 L 346 125 L 331 109 Q 332 106 330 107 L 318 94 L 308 86 L 293 85 Z " /><path fill="rgb(161,108,186)" stroke="rgb(161,108,186)" stroke-width="1" opacity="0.5686274509803921" d="M 292.5 85 L 303 85.5 L 292.5 86 L 292.5 85 Z " /><path fill="rgb(161,108,186)" stroke="rgb(161,108,186)" stroke-width="1" opacity="0.5686274509803921" d="M 287.5 86 L 291 86.5 L 282.5 90 L 261.5 109 L 260 109 Q 261.1 111.7 258.5 111 L 234.5 133 L 234 131.5 L 261.5 107 L 263 107 L 264.5 104 L 281 91 Q 279.8 88 283.5 89 L 287.5 86 Z " /><path fill="rgb(161,108,186)" stroke="rgb(161,108,186)" stroke-width="1" opacity="0.5686274509803921" d="M 304.5 86 L 309.5 87 L 318 93.5 L 329.5 107 Q 331.8 106.3 331 108.5 L 346 124.5 L 349 130 Q 351.7 128.9 351 131.5 L 354 133 L 354 134.5 L 377 159.5 L 382 166.5 L 383 170.5 L 382 170.5 L 381 166.5 L 374 157.5 L 312.5 90 L 304.5 87 L 304.5 86 Z " /><path fill="rgb(161,108,186)" stroke="rgb(161,108,186)" stroke-width="1" opacity="0.5686274509803921" d="M 232.5 133 L 224.5 142 L 203 161.5 L 201.5 164 L 202 162.5 L 203 159 Q 205.7 160.1 205 157.5 L 208 156 L 209.5 153 Q 211.8 153.8 211 151.5 L 232.5 133 Z " /><path fill="rgb(161,108,186)" stroke="rgb(161,108,186)" stroke-width="1" opacity="0.5686274509803921" d="M 198.5 170 L 199 172.5 L 198 172.5 L 198.5 170 Z " /><path fill="rgb(161,108,186)" stroke="rgb(161,108,186)" stroke-width="1" opacity="0.5686274509803921" d="M 383.5 172 L 384 174.5 L 383 174.5 L 383.5 172 Z " /><path fill="rgb(161,108,186)" stroke="rgb(161,108,186)" stroke-width="1" opacity="0.5686274509803921" d="M 197.5 174 L 198 179.5 L 197 179.5 L 197.5 174 Z " /><path fill="rgb(161,108,186)" stroke="rgb(161,108,186)" stroke-width="1" opacity="0.5686274509803921" d="M 384.5 176 L 385 181.5 L 384 181.5 L 384.5 176 Z " /><path fill="rgb(161,108,186)" stroke="rgb(161,108,186)" stroke-width="1" opacity="0.5686274509803921" d="M 196.5 183 L 197 187.5 L 196 188.5 L 194.5 203 L 194 195.5 L 196.5 183 Z " /><path fill="rgb(161,108,186)" stroke="rgb(161,108,186)" stroke-width="1" opacity="0.5686274509803921" d="M 383.5 183 L 384 185.5 L 383 185.5 L 383.5 183 Z " /><path fill="rgb(161,108,186)" stroke="rgb(161,108,186)" stroke-width="1" opacity="0.5686274509803921" d="M 382.5 188 L 383 190.5 L 381.5 194 L 381 191.5 L 382.5 188 Z " /><path fill="rgb(161,108,186)" stroke="rgb(161,108,186)" stroke-width="1" opacity="0.5686274509803921" d="M 379.5 199 L 380 202.5 L 377.5 208 L 377 206.5 L 379.5 199 Z " /><path fill="rgb(161,108,186)" stroke="rgb(161,108,186)" stroke-width="1" opacity="0.5686274509803921" d="M 193.5 206 L 194 210.5 L 193 210.5 L 193.5 206 Z " /><path fill="rgb(161,108,186)" stroke="rgb(161,108,186)" stroke-width="1" opacity="0.5686274509803921" d="M 376.5 210 L 377 213.5 L 374.5 219 L 374 217.5 L 376.5 210 Z " /><path fill="rgb(161,108,186)" stroke="rgb(161,108,186)" stroke-width="1" opacity="0.5686274509803921" d="M 192.5 212 L 193 218.5 L 191.5 226 L 191 219.5 L 192.5 212 Z " /><path fill="rgb(161,108,186)" stroke="rgb(161,108,186)" stroke-width="1" opacity="0.5686274509803921" d="M 373.5 221 L 374 223.5 L 372.5 226 L 372 224.5 L 373.5 221 Z " /><path fill="rgb(161,108,186)" stroke="rgb(161,108,186)" stroke-width="1" opacity="0.5686274509803921" d="M 190.5 230 L 191 233.5 L 190 233.5 L 190.5 230 Z " /><path fill="rgb(161,108,186)" stroke="rgb(161,108,186)" stroke-width="1" opacity="0.5686274509803921" d="M 370.5 231 L 371 234.5 L 369.5 238 L 369 235.5 L 370.5 231 Z " /><path fill="rgb(161,108,186)" stroke="rgb(161,108,186)" stroke-width="1" opacity="0.5686274509803921" d="M 189.5 235 L 190 242.5 L 188.5 250 L 188 242.5 L 189.5 235 Z " /><path fill="rgb(161,108,186)" stroke="rgb(161,108,186)" stroke-width="1" opacity="0.5686274509803921" d="M 368.5 239 L 369 241.5 L 366.5 249 L 366 246.5 L 368.5 239 Z " /><path fill="rgb(161,108,186)" stroke="rgb(161,108,186)" stroke-width="1" opacity="0.5686274509803921" d="M 365.5 250 L 366 253.5 L 358.5 275 L 358 273.5 L 361 267.5 L 365.5 250 Z " /><path fill="rgb(161,108,186)" stroke="rgb(161,108,186)" stroke-width="1" opacity="0.5686274509803921" d="M 187.5 253 L 188 257.5 L 187 257.5 L 187.5 253 Z " /><path fill="rgb(161,108,186)" stroke="rgb(161,108,186)" stroke-width="1" opacity="0.5686274509803921" d="M 186.5 259 L 187 265.5 L 186 265.5 L 186.5 259 Z " /><path fill="rgb(161,108,186)" stroke="rgb(161,108,186)" stroke-width="1" opacity="0.5686274509803921" d="M 187.5 267 L 188 269.5 L 187 269.5 L 187.5 267 Z " /><path fill="rgb(161,108,186)" stroke="rgb(161,108,186)" stroke-width="1" opacity="0.5686274509803921" d="M 188.5 271 L 190 274.5 L 189 274.5 L 188.5 271 Z " /><path fill="rgb(161,108,186)" stroke="rgb(161,108,186)" stroke-width="1" opacity="0.5686274509803921" d="M 191.5 276 L 220 307.5 L 218.5 307 Q 216.3 307.8 217 305.5 L 214 304 L 212.5 301 Q 210.3 301.8 211 299.5 L 191 277.5 L 191.5 276 Z " /><path fill="rgb(161,108,186)" stroke="rgb(161,108,186)" stroke-width="1" opacity="0.5686274509803921" d="M 356.5 276 L 357 277.5 L 342 293.5 L 342 295 L 339 296.5 L 335.5 301 L 335 299.5 L 346 288.5 L 346 287 Q 348.7 288.1 348 285.5 L 353 282 L 356.5 276 Z " /><path fill="rgb(161,108,186)" stroke="rgb(161,108,186)" stroke-width="1" opacity="0.5686274509803921" d="M 333.5 302 L 332.5 304 L 333.5 302 Z " /><path fill="rgb(161,108,186)" stroke="rgb(161,108,186)" stroke-width="1" opacity="0.5686274509803921" d="M 330.5 304 L 331 305.5 L 328 310 L 325 311.5 Q 325.8 313.8 323.5 313 L 322 316 L 319 317.5 Q 319.8 319.8 317.5 319 L 316 322 L 313 323.5 L 310.5 327 L 308.5 328 L 330 305.5 L 330.5 304 Z " /><path fill="rgb(161,108,186)" stroke="rgb(161,108,186)" stroke-width="1" opacity="0.5686274509803921" d="M 220.5 309 L 236 326.5 L 232 323.5 L 220.5 309 Z " /><path fill="rgb(161,108,186)" stroke="rgb(161,108,186)" stroke-width="1" opacity="0.5686274509803921" d="M 237.5 328 L 259.5 352 L 266 355.5 L 264.5 356 L 255 349.5 L 238.5 330 Q 235.7 330.7 237.5 328 Z " /><path fill="rgb(161,108,186)" stroke="rgb(161,108,186)" stroke-width="1" opacity="0.5686274509803921" d="M 307.5 329 L 300.5 337 L 297.5 339 L 296 342 L 287.5 348 L 287.5 347 L 307.5 329 Z " /><path fill="rgb(161,108,186)" stroke="rgb(161,108,186)" stroke-width="1" opacity="0.5686274509803921" d="M 285.5 349 L 287 349.5 L 277.5 356 L 277.5 355 L 285.5 349 Z " /><path fill="rgb(126,0,235)" stroke="rgb(126,0,235)" stroke-width="1" opacity="1" d="M 293.5 102 Q 305.3 100.2 308 107.5 L 332 134.5 L 332 136 Q 334.7 134.9 334 137.5 L 366 172.5 Q 369 175.5 368 182.5 L 357.5 194 L 321.5 226 L 320 226 Q 321.1 228.7 318.5 228 L 304 240 L 301.5 244 L 291.5 252 L 283.5 253 L 271 241.5 L 262 230 Q 259.3 231.1 260 228.5 L 220 184.5 Q 214.6 181.4 216 171.5 L 218 168 L 220 168 L 220 166 L 222 166 Q 220.9 163.3 223.5 164 L 274.5 118 L 276 118 Q 274.9 115.3 277.5 116 L 293.5 102 Z M 287 162 L 284 164 L 278 171 L 278 182 L 280 185 L 288 190 L 295 190 L 300 188 Q 304 185 306 179 Q 307 172 304 169 L 297 162 L 287 162 Z " /><path fill="rgb(89,16,35)" stroke="rgb(89,16,35)" stroke-width="1" opacity="0.9568627450980393" d="M 277.5 94 L 276.5 96 L 277.5 94 Z " /><path fill="rgb(89,16,35)" stroke="rgb(89,16,35)" stroke-width="1" opacity="0.9568627450980393" d="M 322.5 100 L 323.5 102 L 322.5 100 Z " /><path fill="rgb(89,16,35)" stroke="rgb(89,16,35)" stroke-width="1" opacity="0.9568627450980393" d="M 269.5 101 L 267.5 104 L 269.5 101 Z " /><path fill="rgb(89,16,35)" stroke="rgb(89,16,35)" stroke-width="1" opacity="0.9568627450980393" d="M 294.5 101 L 300 101.5 L 294.5 102 L 294.5 101 Z " /><path fill="rgb(89,16,35)" stroke="rgb(89,16,35)" stroke-width="1" opacity="0.9568627450980393" d="M 292.5 102 L 291.5 104 L 286.5 108 L 290.5 103 L 292.5 102 Z " /><path fill="rgb(89,16,35)" stroke="rgb(89,16,35)" stroke-width="1" opacity="0.9568627450980393" d="M 305.5 104 L 307.5 107 L 305.5 104 Z " /><path fill="rgb(89,16,35)" stroke="rgb(89,16,35)" stroke-width="1" opacity="0.9568627450980393" d="M 308.5 108 L 315.5 116 L 308.5 108 Z " /><path fill="rgb(89,16,35)" stroke="rgb(89,16,35)" stroke-width="1" opacity="0.9568627450980393" d="M 281.5 111 L 277.5 116 L 281.5 111 Z " /><path fill="rgb(89,16,35)" stroke="rgb(89,16,35)" stroke-width="1" opacity="0.9568627450980393" d="M 274.5 117 L 276 117.5 L 267.5 125 L 274.5 117 Z " /><path fill="rgb(89,16,35)" stroke="rgb(89,16,35)" stroke-width="1" opacity="0.9568627450980393" d="M 338.5 118 L 339.5 120 L 338.5 118 Z " /><path fill="rgb(89,16,35)" stroke="rgb(89,16,35)" stroke-width="1" opacity="0.9568627450980393" d="M 249.5 119 L 248.5 121 L 249.5 119 Z " /><path fill="rgb(89,16,35)" stroke="rgb(89,16,35)" stroke-width="1" opacity="0.9568627450980393" d="M 318.5 119 L 321.5 123 L 318.5 119 Z " /><path fill="rgb(89,16,35)" stroke="rgb(89,16,35)" stroke-width="1" opacity="0.9568627450980393" d="M 242.5 125 L 240.5 128 L 242.5 125 Z " /><path fill="rgb(89,16,35)" stroke="rgb(89,16,35)" stroke-width="1" opacity="0.9568627450980393" d="M 265.5 125 L 259.5 132 L 265.5 125 Z " /><path fill="rgb(89,16,35)" stroke="rgb(89,16,35)" stroke-width="1" opacity="0.9568627450980393" d="M 324.5 125 L 331 132.5 L 324 126.5 L 324.5 125 Z " /><path fill="rgb(89,16,35)" stroke="rgb(89,16,35)" stroke-width="1" opacity="0.9568627450980393" d="M 346.5 127 L 347.5 129 L 346.5 127 Z " /><path fill="rgb(89,16,35)" stroke="rgb(89,16,35)" stroke-width="1" opacity="0.9568627450980393" d="M 257.5 132 L 248.5 142 L 257.5 132 Z " /><path fill="rgb(89,16,35)" stroke="rgb(89,16,35)" stroke-width="1" opacity="0.9568627450980393" d="M 233.5 133 L 231.5 136 L 233.5 133 Z " /><path fill="rgb(89,16,35)" stroke="rgb(89,16,35)" stroke-width="1" opacity="0.9568627450980393" d="M 334.5 136 L 340 142.5 L 334 137.5 L 334.5 136 Z " /><path fill="rgb(89,16,35)" stroke="rgb(89,16,35)" stroke-width="1" opacity="0.9568627450980393" d="M 356.5 138 L 357.5 140 L 356.5 138 Z " /><path fill="rgb(89,16,35)" stroke="rgb(89,16,35)" stroke-width="1" opacity="0.9568627450980393" d="M 223.5 142 L 222.5 144 L 223.5 142 Z " /><path fill="rgb(89,16,35)" stroke="rgb(89,16,35)" stroke-width="1" opacity="0.9568627450980393" d="M 244.5 144 L 239.5 150 L 244.5 144 Z " /><path fill="rgb(89,16,35)" stroke="rgb(89,16,35)" stroke-width="1" opacity="0.9568627450980393" d="M 342.5 146 L 346.5 151 L 342.5 146 Z " /><path fill="rgb(89,16,35)" stroke="rgb(89,16,35)" stroke-width="1" opacity="0.9568627450980393" d="M 363.5 146 L 364.5 148 L 363.5 146 Z " /><path fill="rgb(89,16,35)" stroke="rgb(89,16,35)" stroke-width="1" opacity="0.9568627450980393" d="M 214.5 150 L 213.5 152 L 214.5 150 Z " /><path fill="rgb(89,16,35)" stroke="rgb(89,16,35)" stroke-width="1" opacity="0.9568627450980393" d="M 237.5 150 L 232.5 156 L 237.5 150 Z " /><path fill="rgb(89,16,35)" stroke="rgb(89,16,35)" stroke-width="1" opacity="0.9568627450980393" d="M 348.5 152 L 349.5 154 L 348.5 152 Z " /><path fill="rgb(89,16,35)" stroke="rgb(89,16,35)" stroke-width="1" opacity="0.9568627450980393" d="M 370.5 154 L 373.5 158 L 370.5 154 Z " /><path fill="rgb(89,16,35)" stroke="rgb(89,16,35)" stroke-width="1" opacity="0.9568627450980393" d="M 350.5 155 L 357.5 163 L 350.5 155 Z " /><path fill="rgb(89,16,35)" stroke="rgb(89,16,35)" stroke-width="1" opacity="0.9568627450980393" d="M 229.5 157 L 223.5 164 L 229.5 157 Z " /><path fill="rgb(89,16,35)" stroke="rgb(89,16,35)" stroke-width="1" opacity="0.9568627450980393" d="M 286.5 162 L 296.5 162 L 304 168.5 Q 307 171.5 306 178.5 Q 304.5 185 299.5 188 L 294.5 190 L 287.5 190 L 280 184.5 L 278 181.5 L 278 170.5 L 283.5 164 L 286.5 162 Z " /><path fill="rgb(89,16,35)" stroke="rgb(89,16,35)" stroke-width="1" opacity="0.9568627450980393" d="M 359.5 165 L 363.5 170 L 359.5 165 Z " /><path fill="rgb(89,16,35)" stroke="rgb(89,16,35)" stroke-width="1" opacity="0.9568627450980393" d="M 217.5 181 L 228 192.5 L 219 184.5 L 217.5 181 Z " /><path fill="rgb(89,16,35)" stroke="rgb(89,16,35)" stroke-width="1" opacity="0.9568627450980393" d="M 366.5 185 L 360.5 192 L 366.5 185 Z " /><path fill="rgb(89,16,35)" stroke="rgb(89,16,35)" stroke-width="1" opacity="0.9568627450980393" d="M 228.5 194 L 235.5 202 L 228.5 194 Z " /><path fill="rgb(89,16,35)" stroke="rgb(89,16,35)" stroke-width="1" opacity="0.9568627450980393" d="M 356.5 194 L 350.5 201 L 356.5 194 Z " /><path fill="rgb(89,16,35)" stroke="rgb(89,16,35)" stroke-width="1" opacity="0.9568627450980393" d="M 348.5 201 L 342.5 208 L 348.5 201 Z " /><path fill="rgb(89,16,35)" stroke="rgb(89,16,35)" stroke-width="1" opacity="0.9568627450980393" d="M 238.5 205 L 243.5 211 L 238.5 205 Z " /><path fill="rgb(89,16,35)" stroke="rgb(89,16,35)" stroke-width="1" opacity="0.9568627450980393" d="M 338.5 210 L 332.5 217 L 338.5 210 Z " /><path fill="rgb(89,16,35)" stroke="rgb(89,16,35)" stroke-width="1" opacity="0.9568627450980393" d="M 245.5 213 L 251.5 220 L 245.5 213 Z " /><path fill="rgb(89,16,35)" stroke="rgb(89,16,35)" stroke-width="1" opacity="0.9568627450980393" d="M 329.5 218 L 323.5 225 L 329.5 218 Z " /><path fill="rgb(89,16,35)" stroke="rgb(89,16,35)" stroke-width="1" opacity="0.9568627450980393" d="M 254.5 223 L 259.5 229 L 254.5 223 Z " /><path fill="rgb(89,16,35)" stroke="rgb(89,16,35)" stroke-width="1" opacity="0.9568627450980393" d="M 318.5 228 L 315.5 232 L 318.5 228 Z " /><path fill="rgb(89,16,35)" stroke="rgb(89,16,35)" stroke-width="1" opacity="0.9568627450980393" d="M 263.5 233 L 281 251.5 L 270 241.5 L 263.5 233 Z " /><path fill="rgb(89,16,35)" stroke="rgb(89,16,35)" stroke-width="1" opacity="0.9568627450980393" d="M 311.5 234 L 306.5 240 L 311.5 234 Z " /><path fill="rgb(89,16,35)" stroke="rgb(89,16,35)" stroke-width="1" opacity="0.9568627450980393" d="M 300.5 244 L 297.5 248 L 300.5 244 Z " /><path fill="rgb(89,16,35)" stroke="rgb(89,16,35)" stroke-width="1" opacity="0.9568627450980393" d="M 294.5 249 L 292.5 252 L 294.5 249 Z " /><path fill="rgb(89,16,35)" stroke="rgb(89,16,35)" stroke-width="1" opacity="0.9568627450980393" d="M 194.5 279 L 195.5 281 L 194.5 279 Z " /><path fill="rgb(89,16,35)" stroke="rgb(89,16,35)" stroke-width="1" opacity="0.9568627450980393" d="M 203.5 289 L 204.5 291 L 203.5 289 Z " /><path fill="rgb(89,16,35)" stroke="rgb(89,16,35)" stroke-width="1" opacity="0.9568627450980393" d="M 210.5 297 L 211.5 299 L 210.5 297 Z " /><path fill="rgb(89,16,35)" stroke="rgb(89,16,35)" stroke-width="1" opacity="0.9568627450980393" d="M 334.5 300 L 331.5 304 L 334.5 300 Z " /><path fill="rgb(89,16,35)" stroke="rgb(89,16,35)" stroke-width="1" opacity="0.9568627450980393" d="M 220.5 308 L 221.5 310 L 220.5 308 Z " /><path fill="rgb(89,16,35)" stroke="rgb(89,16,35)" stroke-width="1" opacity="0.9568627450980393" d="M 307.5 328 L 305.5 331 L 307.5 328 Z " /><path fill="rgb(89,16,35)" stroke="rgb(89,16,35)" stroke-width="1" opacity="0.9568627450980393" d="M 244.5 335 L 246.5 338 L 244.5 335 Z " /><path fill="rgb(89,16,35)" stroke="rgb(89,16,35)" stroke-width="1" opacity="0.9568627450980393" d="M 252.5 344 L 254.5 347 L 252.5 344 Z " /><path fill="rgb(89,16,35)" stroke="rgb(89,16,35)" stroke-width="1" opacity="0.9568627450980393" d="M 289.5 345 L 288.5 347 L 289.5 345 Z " /><path fill="rgb(89,16,35)" stroke="rgb(89,16,35)" stroke-width="1" opacity="0.9568627450980393" d="M 258.5 350 L 259.5 352 L 258.5 350 Z " /><path fill="rgb(18,11,18)" stroke="rgb(18,11,18)" stroke-width="1" opacity="0.996078431372549" d="M 292.5 86 Q 312.5 84.5 319 96.5 Q 318.3 98.8 320.5 98 L 354 135.5 L 354 137 Q 356.7 135.9 356 138.5 L 378 162.5 L 383 171.5 L 384 180.5 L 360 269.5 L 355 278.5 L 345 288.5 L 345 290 Q 342.3 288.9 343 291.5 L 329 305.5 L 329 307 Q 326.3 305.9 327 308.5 L 322 312 L 322 313.5 L 290.5 345 L 279.5 354 L 270.5 357 Q 260.4 354.6 255 347.5 L 249 339 Q 246.3 340.1 247 337.5 L 239 328 Q 236.3 329.1 237 326.5 L 215 302.5 L 215 301 L 212 299.5 L 191 275.5 Q 186.8 270.2 187 260.5 L 188 259.5 L 188 251.5 L 190 243.5 L 191 227.5 L 193 220.5 L 193 212.5 L 194 211.5 L 194 204.5 L 196 197.5 L 196 189.5 L 197 188.5 L 199 170.5 Q 202.7 158.2 212.5 152 L 239 130 Q 237.9 127.3 240.5 128 L 250 119.5 Q 249.3 117.3 251.5 118 L 281.5 91 L 292.5 86 Z M 295 101 L 291 103 L 248 142 Q 245 141 246 144 L 230 157 L 217 170 L 215 176 L 219 185 L 261 231 Q 260 233 263 232 L 270 242 L 283 253 Q 289 254 293 252 L 313 234 Q 315 235 314 232 L 316 232 L 361 192 L 368 184 Q 370 175 366 173 Q 367 170 364 171 L 350 154 L 347 152 L 342 146 Q 343 143 340 144 L 335 138 Q 336 135 334 136 L 325 127 Q 326 124 324 125 L 308 107 Q 304 101 295 101 Z " /></svg>